<?xml version="1.0" encoding="utf-8"?>
<!-- Generator: Adobe Illustrator 23.0.2, SVG Export Plug-In . SVG Version: 6.00 Build 0)  -->
<svg version="1.1" id="Layer_1" xmlns="http://www.w3.org/2000/svg" xmlns:xlink="http://www.w3.org/1999/xlink" x="0px" y="0px"
	 viewBox="0 0 1920 1080" style="enable-background:new 0 0 1920 1080;" xml:space="preserve">
<style type="text/css">
	.st0{fill:url(#SVGID_1_);}
	.st1{fill:#FFFFFF;}
</style>
<g>
	<linearGradient id="SVGID_1_" gradientUnits="userSpaceOnUse" x1="960.0033" y1="-247.7075" x2="960.0033" y2="1672.2991">
		<stop  offset="0" style="stop-color:#2E3191"/>
		<stop  offset="0.1071" style="stop-color:#393C97"/>
		<stop  offset="0.2976" style="stop-color:#585AA6"/>
		<stop  offset="0.5494" style="stop-color:#898BBE"/>
		<stop  offset="0.8495" style="stop-color:#CCCDE0"/>
		<stop  offset="1" style="stop-color:#F1F1F2"/>
	</linearGradient>
	<rect x="0" y="-230" class="st0" width="1920.01" height="1777.51"/>
	<g>
		<g>
			<g>
				<path class="st1" d="M117.65,21.98c3.36,0,1.26-2.65-1.12-2.65C113.16,19.33,115.26,21.98,117.65,21.98L117.65,21.98z"/>
			</g>
		</g>
		<g>
			<g>
				<path class="st1" d="M295.39-144.34c1.03,0,4.76-1.47,4.08-1.47C298.45-145.81,294.71-144.34,295.39-144.34L295.39-144.34z"/>
			</g>
		</g>
		<g>
			<g>
				<path class="st1" d="M380.48,27.67c3.18,0,2.77-4.29-0.36-4.29C376.94,23.38,377.34,27.67,380.48,27.67L380.48,27.67z"/>
			</g>
		</g>
		<g>
			<g>
				<path class="st1" d="M214.44,110.5c2.99,0,3.51-4.22,0.26-4.22C211.71,106.28,211.19,110.5,214.44,110.5L214.44,110.5z"/>
			</g>
		</g>
		<g>
			<g>
				<path class="st1" d="M118.59-118.7c-0.4,0-1.63-4-3-4C115.99-122.7,117.21-118.7,118.59-118.7L118.59-118.7z"/>
			</g>
		</g>
		<g>
			<g>
				<path class="st1" d="M259.32-45.45c2.65,0,0.27-4.27-1.77-4.27C254.91-49.72,257.28-45.45,259.32-45.45L259.32-45.45z"/>
			</g>
		</g>
		<g>
			<g>
				<path class="st1" d="M276.41,518.85c0.99,0,5.37-2.04,3.06-2.04C278.47,516.81,274.09,518.85,276.41,518.85L276.41,518.85z"/>
			</g>
		</g>
		<g>
			<g>
				<path class="st1" d="M722.14,56.94c3.13,0,1.27-4.33-1.27-4.33C717.73,52.61,719.6,56.94,722.14,56.94L722.14,56.94z"/>
			</g>
		</g>
		<g>
			<g>
				<path class="st1" d="M1234.97-55.92c1.38,0-2.17-2.84-3.34-2.84C1230.25-58.75,1233.8-55.92,1234.97-55.92L1234.97-55.92z"/>
			</g>
		</g>
		<g>
			<g>
				<path class="st1" d="M585.63-133.09c2.74,0,0.89-4.48-1.23-4.48C581.66-137.56,583.52-133.09,585.63-133.09L585.63-133.09z"/>
			</g>
		</g>
		<g>
			<g>
				<path class="st1" d="M1112.36-35.58c1.81,0-0.12-4.51-1.84-4.51C1108.71-40.09,1110.64-35.58,1112.36-35.58L1112.36-35.58z"/>
			</g>
		</g>
		<g>
			<g>
				<path class="st1" d="M1628.98,203.27c1.07,0-0.53-4.53-1.71-4.53C1626.2,198.74,1627.8,203.27,1628.98,203.27L1628.98,203.27z"
					/>
			</g>
		</g>
		<g>
			<g>
				<path class="st1" d="M1564.89,486.02c3.16,0,2.47-4.62-0.27-4.62C1561.46,481.4,1562.15,486.02,1564.89,486.02L1564.89,486.02z"
					/>
			</g>
		</g>
		<g>
			<g>
				<path class="st1" d="M166.91,480.47c2.77,0-0.62-3.26-2.16-3.26C161.98,477.21,165.37,480.47,166.91,480.47L166.91,480.47z"/>
			</g>
		</g>
		<g>
			<g>
				<path class="st1" d="M405.8,251.73c2.43,0-0.45-3.96-2.27-3.96C401.11,247.77,403.98,251.73,405.8,251.73L405.8,251.73z"/>
			</g>
		</g>
		<g>
			<g>
				<path class="st1" d="M521.79,544.5c3.15,0,2.44-4.6-0.27-4.6C518.36,539.91,519.08,544.5,521.79,544.5L521.79,544.5z"/>
			</g>
		</g>
		<g>
			<g>
				<path class="st1" d="M682.75,183.5c3.27,0,2.41-3.99-0.5-3.99C678.99,179.51,679.84,183.5,682.75,183.5L682.75,183.5z"/>
			</g>
		</g>
		<g>
			<g>
				<path class="st1" d="M1619.02-64.92c3.13,0,1.25-4.33-1.29-4.33C1614.6-69.25,1616.48-64.92,1619.02-64.92L1619.02-64.92z"/>
			</g>
		</g>
		<g>
			<g>
				<path class="st1" d="M1347.12,95.48c0.28,0-2.05-3.43-3.41-3.43C1343.43,92.06,1345.76,95.48,1347.12,95.48L1347.12,95.48z"/>
			</g>
		</g>
		<g>
			<g>
				<path class="st1" d="M1465.91,465.61c1.43,0,5.38-2.79,2.72-2.79C1467.2,462.82,1463.25,465.61,1465.91,465.61L1465.91,465.61z"
					/>
			</g>
		</g>
		<g>
			<g>
				<path class="st1" d="M1857.14,807.23c3.08,0,3.27-3.61,0.15-3.61C1854.21,803.61,1854.02,807.23,1857.14,807.23L1857.14,807.23z
					"/>
			</g>
		</g>
		<g>
			<g>
				<path class="st1" d="M1512.44,914.44c1.85,0-1.29-3.58-2.6-3.58C1507.99,910.86,1511.13,914.44,1512.44,914.44L1512.44,914.44z"
					/>
			</g>
		</g>
		<g>
			<g>
				<path class="st1" d="M1851.77,367.58c1.99,0,4.58-1.7,1.14-1.7C1850.92,365.88,1848.33,367.58,1851.77,367.58L1851.77,367.58z"
					/>
			</g>
		</g>
		<g>
			<g>
				<path class="st1" d="M1788.97,18.28c3.22,0,3.22-5,0-5C1785.76,13.28,1785.75,18.28,1788.97,18.28L1788.97,18.28z"/>
			</g>
		</g>
		<g>
			<g>
				<path class="st1" d="M965.22-162.07c3.22,0,3.22-5,0-5C962-167.07,961.99-162.07,965.22-162.07L965.22-162.07z"/>
			</g>
		</g>
		<g>
			<g>
				<path class="st1" d="M648.38-69.46c3.22,0,3.22-5,0-5C645.17-74.46,645.16-69.46,648.38-69.46L648.38-69.46z"/>
			</g>
		</g>
		<g>
			<g>
				<path class="st1" d="M73.22,291.24c3.22,0,3.22-5,0-5C70,286.24,69.99,291.24,73.22,291.24L73.22,291.24z"/>
			</g>
		</g>
		<g>
			<g>
				<path class="st1" d="M141.46,739.68c3.22,0,3.22-5,0-5C138.24,734.68,138.23,739.68,141.46,739.68L141.46,739.68z"/>
			</g>
		</g>
		<g>
			<g>
				<path class="st1" d="M297.43,661.69c3.22,0,3.22-5,0-5C294.22,656.69,294.21,661.69,297.43,661.69L297.43,661.69z"/>
			</g>
		</g>
		<g>
			<g>
				<path class="st1" d="M331.55,866.41c3.22,0,3.22-5,0-5C328.34,861.41,328.33,866.41,331.55,866.41L331.55,866.41z"/>
			</g>
		</g>
		<g>
			<g>
				<path class="st1" d="M1082.2,1285.6c3.22,0,3.22-5,0-5C1078.98,1280.6,1078.98,1285.6,1082.2,1285.6L1082.2,1285.6z"/>
			</g>
		</g>
		<g>
			<g>
				<path class="st1" d="M180.45,1270.98c3.22,0,3.22-5,0-5C177.23,1265.98,177.23,1270.98,180.45,1270.98L180.45,1270.98z"/>
			</g>
		</g>
		<g>
			<g>
				<path class="st1" d="M78.09,983.39c3.22,0,3.22-5,0-5C74.87,978.39,74.87,983.39,78.09,983.39L78.09,983.39z"/>
			</g>
		</g>
		<g>
			<g>
				<path class="st1" d="M1793.85,1061.38c3.22,0,3.22-5,0-5C1790.63,1056.38,1790.63,1061.38,1793.85,1061.38L1793.85,1061.38z"/>
			</g>
		</g>
		<g>
			<g>
				<path class="st1" d="M1774.35,1461.08c3.22,0,3.22-5,0-5C1771.13,1456.08,1771.13,1461.08,1774.35,1461.08L1774.35,1461.08z"/>
			</g>
		</g>
		<g>
			<g>
				<path class="st1" d="M1478.01-206.39c2.43,0-0.21-4.09-1.98-4.09C1473.6-210.49,1476.24-206.39,1478.01-206.39L1478.01-206.39z"
					/>
			</g>
		</g>
		<g>
			<g>
				<path class="st1" d="M1885.88-154.05c1.02,0,3.1-1.54,1.16-1.54C1886.02-155.59,1883.94-154.05,1885.88-154.05L1885.88-154.05z"
					/>
			</g>
		</g>
		<g>
			<g>
				<path class="st1" d="M945.19-56.38c1.27,0,3.01-1.92,1.05-1.92C944.98-58.29,943.24-56.38,945.19-56.38L945.19-56.38z"/>
			</g>
		</g>
		<g>
			<g>
				<path class="st1" d="M847.62-173.67c0.87,0,3.14-1.3,1.22-1.3C847.97-174.97,845.7-173.67,847.62-173.67L847.62-173.67z"/>
			</g>
		</g>
		<g>
			<g>
				<path class="st1" d="M1735.42,642.17c2.19,0,2.1-4.96-0.12-4.96C1733.11,637.21,1733.2,642.17,1735.42,642.17L1735.42,642.17z"
					/>
			</g>
		</g>
		<g>
			<g>
				<path class="st1" d="M1769.54,388.71c2.19,0,2.1-4.96-0.12-4.96C1767.23,383.75,1767.32,388.71,1769.54,388.71L1769.54,388.71z"
					/>
			</g>
		</g>
		<g>
			<g>
				<path class="st1" d="M1608.69,1280.71c2.19,0,2.1-4.96-0.12-4.96C1606.37,1275.75,1606.47,1280.71,1608.69,1280.71
					L1608.69,1280.71z"/>
			</g>
		</g>
		<g>
			<g>
				<path class="st1" d="M1218.74,1490.3c2.19,0,2.1-4.96-0.12-4.96C1216.43,1485.34,1216.52,1490.3,1218.74,1490.3L1218.74,1490.3z
					"/>
			</g>
		</g>
		<g>
			<g>
				<path class="st1" d="M897.04,101.12c2.19,0,2.1-4.96-0.12-4.96C894.73,96.16,894.82,101.12,897.04,101.12L897.04,101.12z"/>
			</g>
		</g>
		<g>
			<g>
				<path class="st1" d="M1452.12-51.49c1.28,0,3-1.93,1.05-1.93C1451.89-53.43,1450.17-51.49,1452.12-51.49L1452.12-51.49z"/>
			</g>
		</g>
		<g>
			<g>
				<path class="st1" d="M1378.94-212.58c0.97,0,3.11-1.46,1.18-1.46C1379.15-214.04,1377.01-212.58,1378.94-212.58L1378.94-212.58z
					"/>
			</g>
		</g>
		<g>
			<g>
				<path class="st1" d="M711.61-202.55c1.62,0,2.25-2.03,0.28-2.03C710.27-204.58,709.64-202.55,711.61-202.55L711.61-202.55z"/>
			</g>
		</g>
		<g>
			<g>
				<path class="st1" d="M491.46-129.9c0.57,0,3.26-1.09,1.9-1.09C492.79-131,490.1-129.9,491.46-129.9L491.46-129.9z"/>
			</g>
		</g>
		<g>
			<g>
				<path class="st1" d="M555.21,143.33c1.09,0,3.08-1.64,1.13-1.64C555.25,141.69,553.26,143.33,555.21,143.33L555.21,143.33z"/>
			</g>
		</g>
		<g>
			<g>
				<path class="st1" d="M272.92,265.39c1.63,0,2.25-2.05,0.28-2.05C271.57,263.35,270.95,265.39,272.92,265.39L272.92,265.39z"/>
			</g>
		</g>
		<g>
			<g>
				<path class="st1" d="M408.99,484.57c1.14,0,3.06-1.72,1.11-1.72C408.96,482.85,407.04,484.57,408.99,484.57L408.99,484.57z"/>
			</g>
		</g>
		<g>
			<g>
				<path class="st1" d="M111.69,591.92c1.29,0,3-1.95,1.04-1.95C111.44,589.97,109.74,591.92,111.69,591.92L111.69,591.92z"/>
			</g>
		</g>
		<g>
			<g>
				<path class="st1" d="M1681.15,338.22c0.99,0,3.11-1.48,1.17-1.48C1681.34,336.74,1679.21,338.22,1681.15,338.22L1681.15,338.22z
					"/>
			</g>
		</g>
		<g>
			<g>
				<path class="st1" d="M1242.45,182.18c0.9,0,3.13-1.35,1.21-1.35C1242.75,180.83,1240.52,182.18,1242.45,182.18L1242.45,182.18z"
					/>
			</g>
		</g>
		<g>
			<g>
				<path class="st1" d="M1301.4,406.73c1.61,0,2.26-2.01,0.29-2.01C1300.07,404.72,1299.43,406.73,1301.4,406.73L1301.4,406.73z"/>
			</g>
		</g>
		<g>
			<g>
				<path class="st1" d="M837.54,216.22c0.62,0,3.28-1.19,1.88-1.19C838.8,215.03,836.14,216.22,837.54,216.22L837.54,216.22z"/>
			</g>
		</g>
		<g>
			<g>
				<path class="st1" d="M823.75,455.6c1.71,0,2.18-2.27,0.22-2.27C822.26,453.33,821.79,455.6,823.75,455.6L823.75,455.6z"/>
			</g>
		</g>
		<g>
			<g>
				<path class="st1" d="M793.67,1327.53c0.58,0,3.26-1.12,1.9-1.12C794.98,1326.41,792.3,1327.53,793.67,1327.53L793.67,1327.53z"
					/>
			</g>
		</g>
		<g>
			<g>
				<path class="st1" d="M872.47,1571.73c1.64,0,2.23-2.09,0.27-2.09C871.09,1569.64,870.5,1571.73,872.47,1571.73L872.47,1571.73z"
					/>
			</g>
		</g>
		<g>
			<g>
				<path class="st1" d="M345.58,1478.79c0.95,0,3.12-1.43,1.18-1.43C345.82,1477.36,343.65,1478.79,345.58,1478.79L345.58,1478.79z
					"/>
			</g>
		</g>
		<g>
			<g>
				<path class="st1" d="M335.85,1142.5c1,0,3.11-1.5,1.17-1.5C336.01,1141,333.9,1142.5,335.85,1142.5L335.85,1142.5z"/>
			</g>
		</g>
		<g>
			<g>
				<path class="st1" d="M107.21,1449.9c1.66,0,2.22-2.15,0.25-2.15C105.8,1447.75,105.24,1449.9,107.21,1449.9L107.21,1449.9z"/>
			</g>
		</g>
		<g>
			<g>
				<path class="st1" d="M136.58,1149.12c3.22,0,3.22-5,0-5C133.36,1144.12,133.36,1149.12,136.58,1149.12L136.58,1149.12z"/>
			</g>
		</g>
		<g>
			<g>
				<path class="st1" d="M184.73,927.98c0.94,0,3.12-1.4,1.19-1.4C184.98,926.57,182.8,927.98,184.73,927.98L184.73,927.98z"/>
			</g>
		</g>
		<g>
			<g>
				<path class="st1" d="M277.82,996.63c1.69,0,2.19-2.23,0.23-2.23C276.36,994.4,275.86,996.63,277.82,996.63L277.82,996.63z"/>
			</g>
		</g>
		<g>
			<g>
				<path class="st1" d="M350.52,957.48c1.26,0,3.01-1.91,1.06-1.91C350.32,955.57,348.57,957.48,350.52,957.48L350.52,957.48z"/>
			</g>
		</g>
		<g>
			<g>
				<path class="st1" d="M103.04,874.27c3.25-1.62,6.5-3.25,9.75-4.87c1.79-0.9,0.15-1.88-1.15-1.23c-3.25,1.62-6.5,3.25-9.75,4.87
					C100.09,873.94,101.73,874.93,103.04,874.27L103.04,874.27z"/>
			</g>
		</g>
		<g>
			<g>
				<path class="st1" d="M443.08,728.19c1.01,0,3.1-1.52,1.16-1.52C443.23,726.67,441.14,728.19,443.08,728.19L443.08,728.19z"/>
			</g>
		</g>
		<g>
			<g>
				<path class="st1" d="M228.64,611.3c1.14,0,3.06-1.72,1.11-1.72C228.61,609.59,226.69,611.3,228.64,611.3L228.64,611.3z"/>
			</g>
		</g>
		<g>
			<g>
				<path class="st1" d="M89.17,449.57c1.62-1.62,3.25-3.25,4.87-4.87c0.49-0.49-0.42-0.69-0.74-0.7c-0.68-0.01-1.44,0.27-1.92,0.75
					c-1.62,1.62-3.25,3.25-4.87,4.87c-0.49,0.49,0.42,0.69,0.74,0.7C87.93,450.32,88.69,450.05,89.17,449.57L89.17,449.57z"/>
			</g>
		</g>
		<g>
			<g>
				<path class="st1" d="M1875.77,635.41c0.63,0,3.28-1.19,1.88-1.19C1877.02,634.22,1874.37,635.41,1875.77,635.41L1875.77,635.41z
					"/>
			</g>
		</g>
		<g>
			<g>
				<path class="st1" d="M1719.78,801.09c0.57,0,3.26-1.1,1.9-1.1C1721.12,800,1718.43,801.09,1719.78,801.09L1719.78,801.09z"/>
			</g>
		</g>
		<g>
			<g>
				<path class="st1" d="M1598.35,1030.61c1.28,0,3-1.94,1.05-1.94C1598.12,1028.67,1596.4,1030.61,1598.35,1030.61L1598.35,1030.61
					z"/>
			</g>
		</g>
		<g>
			<g>
				<path class="st1" d="M1564.61,689.43c1.6,0,2.27-1.98,0.29-1.98C1563.3,687.44,1562.63,689.43,1564.61,689.43L1564.61,689.43z"
					/>
			</g>
		</g>
		<g>
			<g>
				<path class="st1" d="M1349.72,469.9c1.07,0,3.08-1.62,1.13-1.62C1349.78,468.28,1347.77,469.9,1349.72,469.9L1349.72,469.9z"/>
			</g>
		</g>
		<g>
			<g>
				<path class="st1" d="M1218.1,162.78c1.03,0,3.1-1.55,1.15-1.55C1218.23,161.23,1216.16,162.78,1218.1,162.78L1218.1,162.78z"/>
			</g>
		</g>
		<g>
			<g>
				<path class="st1" d="M1184.03-183.11c1.26,0,3.01-1.91,1.06-1.91C1183.83-185.02,1182.08-183.11,1184.03-183.11L1184.03-183.11z
					"/>
			</g>
		</g>
		<g>
			<g>
				<path class="st1" d="M1413.04-85.92c0.88,0,3.14-1.31,1.22-1.31C1413.38-87.24,1411.12-85.92,1413.04-85.92L1413.04-85.92z"/>
			</g>
		</g>
		<g>
			<g>
				<path class="st1" d="M1217.75-163.95c0.66,0,3.29-1.25,1.86-1.25C1218.95-165.19,1216.32-163.95,1217.75-163.95L1217.75-163.95z
					"/>
			</g>
		</g>
		<g>
			<g>
				<path class="st1" d="M1374.54-114.73c1.68,0,2.2-2.19,0.24-2.19C1373.1-116.92,1372.57-114.73,1374.54-114.73L1374.54-114.73z"
					/>
			</g>
		</g>
		<g>
			<g>
				<path class="st1" d="M1111.31-187.9c1.64,0,2.23-2.09,0.27-2.09C1109.93-189.99,1109.34-187.9,1111.31-187.9L1111.31-187.9z"/>
			</g>
		</g>
		<g>
			<g>
				<path class="st1" d="M1252.2,123.7c0.91,0,3.13-1.36,1.2-1.36C1252.49,122.33,1250.27,123.7,1252.2,123.7L1252.2,123.7z"/>
			</g>
		</g>
		<g>
			<g>
				<path class="st1" d="M1452.12-134.35c1.29,0,3-1.95,1.05-1.95C1451.88-136.3,1450.17-134.35,1452.12-134.35L1452.12-134.35z"/>
			</g>
		</g>
		<g>
			<g>
				<path class="st1" d="M1418.53-88.96c3.22,0,3.22-5,0-5C1415.31-93.96,1415.3-88.96,1418.53-88.96L1418.53-88.96z"/>
			</g>
		</g>
		<g>
			<g>
				<path class="st1" d="M1881.59-186.44c3.22,0,3.22-5,0-5C1878.37-191.44,1878.36-186.44,1881.59-186.44L1881.59-186.44z"/>
			</g>
		</g>
		<g>
			<g>
				<path class="st1" d="M1720.73-171.82c0.04,0,0.04-5,0-5C1720.7-176.82,1720.7-171.82,1720.73-171.82L1720.73-171.82z"/>
			</g>
		</g>
		<g>
			<g>
				<path class="st1" d="M1813.35-132.82c0.04,0,0.04-5,0-5C1813.31-137.82,1813.31-132.82,1813.35-132.82L1813.35-132.82z"/>
			</g>
		</g>
		<g>
			<g>
				<path class="st1" d="M1710.99-69.46c0.04,0,0.04-5,0-5C1710.95-74.46,1710.95-69.46,1710.99-69.46L1710.99-69.46z"/>
			</g>
		</g>
		<g>
			<g>
				<path class="st1" d="M1886.46,18.28c0.04,0,0.04-5,0-5C1886.42,13.28,1886.42,18.28,1886.46,18.28L1886.46,18.28z"/>
			</g>
		</g>
		<g>
			<g>
				<path class="st1" d="M1608.62,81.65c0.04,0,0.04-5,0-5C1608.59,76.65,1608.59,81.65,1608.62,81.65L1608.62,81.65z"/>
			</g>
		</g>
		<g>
			<g>
				<path class="st1" d="M1291.79,223c0.04,0,0.04-5,0-5C1291.76,218,1291.76,223,1291.79,223L1291.79,223z"/>
			</g>
		</g>
		<g>
			<g>
				<path class="st1" d="M1340.54,442.34c0.04,0,0.04-5,0-5C1340.5,437.34,1340.5,442.34,1340.54,442.34L1340.54,442.34z"/>
			</g>
		</g>
	</g>
</g>
</svg>
