<?xml version="1.0" encoding="utf-8"?>
<!-- Generator: Adobe Illustrator 23.0.2, SVG Export Plug-In . SVG Version: 6.00 Build 0)  -->
<svg version="1.1" id="Layer_1" xmlns="http://www.w3.org/2000/svg" xmlns:xlink="http://www.w3.org/1999/xlink" x="0px" y="0px"
	 viewBox="0 0 101.95 115.35" style="enable-background:new 0 0 101.95 115.35;" xml:space="preserve">
<style type="text/css">
	.st0{fill:url(#SVGID_1_);}
	.st1{fill:#FFFFFF;}
	.st2{fill:#0E1226;}
</style>
<g>
	<path class="st2" d="M41.24,102.6c0-5.58,6.11-19.87,8.65-25.56c0.48-1.09,1.68-1.09,2.17,0c2.54,5.69,8.65,19.98,8.65,25.56
		c0,7.04-4.36,12.74-9.73,12.74S41.24,109.64,41.24,102.6z"/>
	<path class="st2" d="M41.7,28.74c1.84,3.19,3.07,13.39,3.5,17.49c0.08,0.78-0.6,1.18-1.24,0.72c-3.33-2.42-11.55-8.58-13.4-11.77
		c-2.33-4.03-1.72-8.73,1.36-10.51C34.99,22.89,39.37,24.71,41.7,28.74z"/>
	<path class="st2" d="M85.02,88.57c-4.83-2.79-14.15-15.23-17.81-20.27c-0.7-0.96-0.1-2,1.08-1.88c6.2,0.65,21.63,2.5,26.46,5.29
		c6.09,3.52,8.85,10.14,6.17,14.8S91.11,92.08,85.02,88.57z"/>
	<path class="st2" d="M21.28,51.24c3.69,0,13.13,4.04,16.89,5.72c0.72,0.32,0.72,1.11,0,1.43c-3.76,1.68-13.21,5.72-16.89,5.72
		c-4.65,0-8.42-2.88-8.42-6.43C12.86,54.12,16.63,51.24,21.28,51.24z"/>
	<path class="st2" d="M94.75,43.63c-4.83,2.79-20.26,4.64-26.46,5.29c-1.18,0.12-1.78-0.91-1.08-1.88
		C70.87,42,80.19,29.57,85.02,26.78c6.09-3.52,13.21-2.6,15.9,2.06C103.61,33.49,100.85,40.12,94.75,43.63z"/>
	<path class="st2" d="M30.56,80.17c1.84-3.19,10.06-9.35,13.4-11.77c0.64-0.46,1.32-0.07,1.24,0.72c-0.43,4.1-1.65,14.29-3.5,17.49
		c-2.33,4.03-6.7,5.85-9.78,4.08C28.84,88.91,28.23,84.2,30.56,80.17z"/>
	<path class="st2" d="M60.71,12.74c0,5.58-6.11,19.87-8.65,25.56c-0.48,1.09-1.68,1.09-2.17,0c-2.54-5.69-8.65-19.98-8.65-25.56
		C41.24,5.7,45.6,0,50.97,0C56.35,0,60.71,5.7,60.71,12.74z"/>
	<path class="st2" d="M60.25,86.61c-1.84-3.19-3.07-13.39-3.5-17.49c-0.08-0.78,0.6-1.18,1.24-0.72c3.33,2.42,11.55,8.58,13.4,11.77
		c2.33,4.03,1.72,8.73-1.36,10.51C66.96,92.46,62.58,90.63,60.25,86.61z"/>
	<path class="st2" d="M16.93,26.78C21.76,29.57,31.08,42,34.74,47.05c0.7,0.96,0.1,2-1.08,1.88c-6.2-0.65-21.63-2.5-26.46-5.29
		c-6.09-3.52-8.85-10.14-6.17-14.8S10.83,23.26,16.93,26.78z"/>
	<path class="st2" d="M80.67,64.1c-3.69,0-13.13-4.04-16.89-5.72c-0.72-0.32-0.72-1.11,0-1.43c3.76-1.68,13.21-5.72,16.89-5.72
		c4.65,0,8.42,2.88,8.42,6.43S85.32,64.1,80.67,64.1z"/>
	<path class="st2" d="M7.2,71.71c4.83-2.79,20.26-4.64,26.46-5.29c1.18-0.12,1.78,0.91,1.08,1.88
		c-3.66,5.04-12.98,17.48-17.81,20.27c-6.09,3.52-13.21,2.6-15.9-2.06C-1.66,81.85,1.1,75.23,7.2,71.71z"/>
	<path class="st2" d="M71.39,35.17c-1.84,3.19-10.06,9.35-13.4,11.77c-0.64,0.46-1.32,0.07-1.24-0.72c0.43-4.1,1.65-14.29,3.5-17.49
		c2.33-4.03,6.7-5.85,9.78-4.08C73.11,26.44,73.72,31.14,71.39,35.17z"/>
</g>
</svg>
