<?xml version="1.0" encoding="utf-8"?>
<!-- Generator: Adobe Illustrator 23.0.2, SVG Export Plug-In . SVG Version: 6.00 Build 0)  -->
<svg version="1.1" id="Layer_1" xmlns="http://www.w3.org/2000/svg" xmlns:xlink="http://www.w3.org/1999/xlink" x="0px" y="0px"
	 viewBox="0 0 312.77 620" style="enable-background:new 0 0 312.77 620;" xml:space="preserve">
<style type="text/css">
	.st0{clip-path:url(#SVGID_2_);fill:url(#SVGID_3_);}
	.st1{clip-path:url(#SVGID_2_);}
	.st2{fill:#485578;}
	.st3{fill:#8494CA;}
	.st4{fill:#586592;}
	.st5{fill:#A8B9DF;}
	.st6{opacity:0.34;clip-path:url(#SVGID_2_);fill:#FFFFFF;}
	.st7{opacity:0.9;}
	.st8{fill:#FFFFFF;}
</style>
<title>Asset 1</title>
<g>
	<defs>
		<rect id="SVGID_1_" width="312.77" height="620"/>
	</defs>
	<clipPath id="SVGID_2_">
		<use xlink:href="#SVGID_1_"  style="overflow:visible;"/>
	</clipPath>
	<linearGradient id="SVGID_3_" gradientUnits="userSpaceOnUse" x1="-70.2937" y1="106.1599" x2="299.2207" y2="327.6796">
		<stop  offset="0" style="stop-color:#1B75BB"/>
		<stop  offset="0.7631" style="stop-color:#6CCBDF"/>
	</linearGradient>
	<rect x="-36.18" y="-11.16" class="st0" width="363.12" height="493.24"/>
	<g class="st1">
		
			<image style="overflow:visible;opacity:0.75;" width="902" height="622" xlink:href="18E6BA794C3AD931.png"  transform="matrix(1 0 0 1 -264.8085 37.0778)">
		</image>
		<g>
			<g>
				<polygon class="st2" points="134.86,286.81 68.79,155.93 22.72,196.46 -24.86,271.56 -120.8,411.61 -254.48,614.95 
					-102.39,610.83 125.69,623.98 230.89,533.16 				"/>
				<polygon class="st3" points="-163.96,614.95 -15.68,435.02 103.32,302.1 166.41,193.55 240.07,47.34 292.71,113.8 
					365.23,282.16 471.25,397.36 616.45,638.86 240.07,638.86 37.32,610.83 				"/>
				<polygon class="st4" points="68.79,155.93 59.61,277.21 -68.12,334.71 22.72,196.46 				"/>
				<polygon class="st5" points="240.07,47.34 292.71,113.8 365.23,282.16 471.25,397.36 289.63,286.17 271.62,127.67 				"/>
				<polygon class="st5" points="68.79,155.93 59.61,277.21 74.12,334.71 103.32,302.1 127.19,257.62 				"/>
				<polygon class="st2" points="289.63,286.17 203.23,366.5 79.96,410.02 -15.68,435.02 -163.96,614.95 415.43,623.98 				"/>
				<polygon class="st4" points="240.07,47.34 271.62,127.67 289.63,286.17 203.23,366.5 79.96,410.02 -15.68,435.02 103.32,302.1 
									"/>
			</g>
		</g>
	</g>
	<path class="st6" d="M231.13,443.01H1.9c-16.72,0-30.28,13.56-30.28,30.28v0c0,6.91,2.32,13.28,6.22,18.38h-120.83
		c-16.72,0-30.28,13.56-30.28,30.28l0,0c0,16.72,13.56,30.28,30.28,30.28H86.23c16.72,0,30.28-13.56,30.28-30.28l0,0
		c0-6.91-2.32-13.28-6.22-18.38h120.83c16.72,0,30.28-13.56,30.28-30.28v0C261.41,456.57,247.85,443.01,231.13,443.01z"/>
	<path class="st6" d="M163.95,64.27h-80.1c-2.45-12.94-13.81-22.74-27.46-22.74h-211.65c-15.44,0-27.96,12.52-27.96,27.96
		s12.52,27.96,27.96,27.96h80.1c2.45,12.94,13.81,22.74,27.46,22.74h211.65c15.44,0,27.96-12.52,27.96-27.96v0
		C191.91,76.79,179.39,64.27,163.95,64.27z"/>
	<path class="st6" d="M524.66,200.13h-225.9c-16.48,0-29.84,13.36-29.84,29.84l0,0c0,4.17,0.86,8.13,2.4,11.73h-47.03
		c-16.48,0-29.84,13.36-29.84,29.84v0c0,16.48,13.36,29.84,29.84,29.84h225.9c16.48,0,29.84-13.36,29.84-29.84v0
		c0-4.17-0.86-8.13-2.4-11.73h47.03c16.48,0,29.84-13.36,29.84-29.84l0,0C554.5,213.5,541.14,200.13,524.66,200.13z"/>
</g>
<g class="st7">
	<path class="st8" d="M48.05,142.74c-3.3-2.53-5.8-6.04-7.5-10.53S38,122.62,38,116.91c0-5.87,1.33-11.06,3.99-15.58
		s6.47-8.01,11.42-10.46c4.95-2.45,10.73-3.73,17.34-3.82h5.48c10.58,0,18.84,2.53,24.79,7.6c5.95,5.07,8.92,12.13,8.92,21.21
		c0,7.79-1.93,13.98-5.79,18.56c-3.86,4.58-9.42,7.34-16.66,8.27v-11.93c8.43-1.35,12.65-6.24,12.65-14.67
		c0-5.45-1.96-9.59-5.88-12.43c-3.92-2.84-9.66-4.3-17.24-4.4h-5.37c-7.55,0-13.41,1.59-17.58,4.79c-4.17,3.19-6.26,7.62-6.26,13.3
		c0,6.22,1.4,10.64,4.21,13.27h13.63v-14.43h9.23v26.55H48.05z"/>
	<path class="st8" d="M55.26,215v-27.12l-16.3-5.67v-12.65L108.98,196v10.92l-70.02,26.5v-12.7L55.26,215z M65.07,191.29v20.29
		l29.05-10.15L65.07,191.29z"/>
	<path class="st8" d="M108.98,276.83l-53.67,20.2l53.67,20.15v15.73H38.96v-12.12h23.08l30.88,1.2l-53.96-20.68v-8.71l53.91-20.63
		l-30.83,1.2H38.96v-12.12h70.02V276.83z"/>
	<path class="st8" d="M70.22,407.91v-28.76H48.77v33.62h-9.81v-45.78h70.02v45.45h-9.81v-33.28H79.84v28.76H70.22z"/>
	<path class="st8" d="M63.92,524.25v8.71h-9.38v-8.71H38.96v-11.69h15.58v-30.25l7.12-0.34l47.32,30.2v12.07H63.92z M63.92,494.24
		v18.32h29.24l-1.54-0.87L63.92,494.24z"/>
</g>
</svg>
