<?xml version="1.0" encoding="utf-8"?>
<!-- Generator: Adobe Illustrator 23.0.2, SVG Export Plug-In . SVG Version: 6.00 Build 0)  -->
<svg version="1.1" id="Layer_1" xmlns="http://www.w3.org/2000/svg" xmlns:xlink="http://www.w3.org/1999/xlink" x="0px" y="0px"
	 viewBox="0 0 1160.79 137.31" style="enable-background:new 0 0 1160.79 137.31;" xml:space="preserve">
<style type="text/css">
	.st0{fill:none;stroke:#0E1226;stroke-width:4;stroke-miterlimit:10;}
</style>
<g>
	<path class="st0" d="M2.67,2h25.98l25.8,97.91h0.38L84.2,2h24.48l28.81,97.91h0.38L164.23,2h25.23l-38.98,133.31h-22.97
		L96.25,35.33h-0.38l-31.26,99.98H41.65L2.67,2z"/>
	<path class="st0" d="M242.93,2h23.73v133.31h-23.73L242.93,2L242.93,2z"/>
	<path class="st0" d="M357.42,2v112.22h56.68v21.09h-80.4V2H357.42z"/>
	<path class="st0" d="M467.56,2h47.26c8.66,0,17.38,1.13,26.17,3.39c8.78,2.26,16.69,6,23.72,11.2
		c7.03,5.21,12.74,12.05,17.14,20.52c4.39,8.47,6.59,18.99,6.59,31.54c0,11.67-2.2,21.72-6.59,30.13
		c-4.4,8.41-10.11,15.32-17.14,20.71c-7.03,5.4-14.94,9.39-23.72,11.96c-8.79,2.57-17.51,3.86-26.17,3.86h-47.26V2z M511.06,114.6
		c6.15,0,12.3-0.72,18.45-2.17c6.15-1.44,11.7-3.89,16.66-7.34c4.96-3.45,9.01-8.13,12.15-14.03s4.71-13.37,4.71-22.41
		c0-9.54-1.57-17.32-4.71-23.35s-7.19-10.73-12.15-14.12s-10.52-5.71-16.66-6.97c-6.15-1.25-12.3-1.88-18.45-1.88h-19.77v92.26
		h19.77V114.6z"/>
	<path class="st0" d="M649.08,2h23.73v112.22h56.68v21.09h-80.4L649.08,2L649.08,2z"/>
	<path class="st0" d="M798.96,77.51L748.87,2h29l33.52,56.11L845.28,2h27.49l-50.09,75.51v57.81h-23.73V77.51H798.96z"/>
	<path class="st0" d="M921.54,2h86.05v20.71h-62.33v36.53h58.75V79.2h-58.75v56.11h-23.73V2H921.54z"/>
	<path class="st0" d="M1067.09,2h88.31v20.71h-64.58V56.6h61.2v19.96h-61.2v37.66h67.97v21.09h-91.7V2z"/>
</g>
</svg>
